{"title":"Springfloden S02 E03 - 720p x264 - SWE (ENG SUBS) [BRSHNKV]","magnet":"magnet:?xt=urn:btih:20e27f32703360a4040f697fbab0d8a3a8e2ec48&dn=Springfloden+S02+E03+-+720p+x264+-+SWE+%28ENG+SUBS%29+%5BBRSHNKV%5D&tr=udp%3A%2F%2Ftracker.leechers-paradise.org%3A6969&tr=udp%3A%2F%2Fzer0day.ch%3A1337&tr=udp%3A%2F%2Fopen.demonii.com%3A1337&tr=udp%3A%2F%2Ftracker.coppersurfer.tk%3A6969&tr=udp%3A%2F%2Fexodus.desync.com%3A6969","uploader":"BRSHNKV","categoryP":"video","categoryS":"hd___tv_shows","size":"615131554","seeders":"8","leechers":"2","description":"Video\r\nID                                       : 1\r\nFormat                                   : AVC\r\nFormat/Info                              : Advanced Video Codec\r\nFormat profile                           : High 10@L4\r\nFormat settings, CABAC                   : Yes\r\nFormat settings, ReFrames                : 5 frames\r\nCodec ID                                 : avc1\r\nCodec ID/Info                            : Advanced Video Coding\r\nDuration                                 : 43mn 49s\r\nBit rate                                 : 1 700 Kbps\r\nWidth                                    : 1 280 pixels\r\nHeight                                   : 720 pixels\r\nDisplay aspect ratio                     : 16:9\r\nFrame rate mode                          : Constant\r\nFrame rate                               : 25.000 fps\r\nColor space                              : YUV\r\nChroma subsampling                       : 4:2:0\r\nBit depth                                : 10 bits\r\nScan type                                : Progressive\r\nBits/(Pixel*Frame)                       : 0.074\r\nStream size                              : 533 MiB (91%)\r\nWriting library                          : x264 core 155 r2901 7d0ff22\r\nEncoded date                             : UTC 2018-10-02 18:30:42\r\nTagged date                              : UTC 2018-10-02 18:30:42\r\nColor range                              : Limited\r\nColor primaries                          : BT.709\r\nTransfer characteristics                 : BT.709\r\nMatrix coefficients                      : BT.709\r\n\r\nAudio\r\nID                                       : 2\r\nFormat                                   : AAC\r\nFormat/Info                              : Advanced Audio Codec\r\nFormat profile                           : LC\r\nCodec ID                                 : 40\r\nDuration                                 : 43mn 49s\r\nBit rate mode                            : Variable\r\nBit rate                                 : 165 Kbps\r\nChannel(s)                               : 2 channels\r\nChannel positions                        : Front: L R\r\nSampling rate                            : 48.0 KHz\r\nCompression mode                         : Lossy\r\nStream size                              : 51.7 MiB (9%)\r\nTitle                                    : Stereo / Stereo\r\nLanguage                                 : Swedish\r\nEncoded date                             : UTC 2018-10-02 18:30:42\r\nTagged date                              : UTC 2018-10-02 18:30:42","last_updated":"2018-10-04T12:12:04.671Z","parsed":{"xt":"urn:btih:20e27f32703360a4040f697fbab0d8a3a8e2ec48","dn":"Springfloden S02 E03 - 720p x264 - SWE (ENG SUBS) [BRSHNKV]","tr":["udp://exodus.desync.com:6969","udp://open.demonii.com:1337","udp://tracker.coppersurfer.tk:6969","udp://tracker.leechers-paradise.org:6969","udp://zer0day.ch:1337"],"infoHash":"20e27f32703360a4040f697fbab0d8a3a8e2ec48","infoHashBuffer":{"type":"Buffer","data":[32,226,127,50,112,51,96,164,4,15,105,127,186,176,216,163,168,226,236,72]},"name":"Springfloden S02 E03 - 720p x264 - SWE (ENG SUBS) [BRSHNKV]","announce":["udp://exodus.desync.com:6969","udp://open.demonii.com:1337","udp://tracker.coppersurfer.tk:6969","udp://tracker.leechers-paradise.org:6969","udp://zer0day.ch:1337"],"urlList":[]}}